<?xml version="1.0" standalone="no"?>
<!DOCTYPE svg PUBLIC "-//W3C//DTD SVG 20010904//EN"
 "http://www.w3.org/TR/2001/REC-SVG-20010904/DTD/svg10.dtd">
<svg version="1.0" xmlns="http://www.w3.org/2000/svg"
 width="500.000000pt" height="500.000000pt" viewBox="0 0 500.000000 500.000000"
 preserveAspectRatio="xMidYMid meet">

<g transform="translate(0.000000,500.000000) scale(0.100000,-0.100000)"
fill="#000000" stroke="none">
<path d="M2320 4994 c-19 -2 -78 -9 -130 -15 -332 -37 -701 -166 -994 -347
-875 -539 -1329 -1537 -1160 -2550 161 -967 893 -1761 1844 -2002 352 -89 682
-103 1035 -44 878 146 1613 753 1924 1587 218 583 213 1213 -15 1795 -122 313
-312 601 -558 848 -388 388 -868 628 -1421 710 -96 14 -452 27 -525 18z m561
-751 c80 -39 150 -111 187 -191 24 -50 27 -69 26 -152 -1 -116 -26 -191 -87
-257 -45 -49 -66 -62 -424 -258 -139 -76 -253 -141 -253 -144 0 -4 46 -33 103
-65 212 -123 727 -421 847 -491 69 -40 188 -110 265 -154 158 -92 213 -140
253 -220 57 -117 26 -270 -74 -366 -23 -22 -133 -92 -245 -156 -112 -64 -292
-167 -399 -229 -988 -570 -1403 -803 -1472 -827 -53 -18 -139 -20 -195 -4 -84
23 -188 129 -217 221 -13 38 -15 228 -18 1205 -3 1102 -2 1163 15 1219 37 119
60 141 297 273 69 39 183 103 253 142 71 40 150 84 175 98 251 140 404 225
491 275 195 112 214 119 316 116 78 -3 99 -7 156 -35z"/>
<path d="M1724 2919 c-18 -20 -19 -49 -21 -733 -3 -779 -5 -758 54 -764 40 -4
28 -10 557 290 735 417 725 411 736 439 24 57 28 54 -633 432 -347 198 -636
357 -650 357 -13 0 -32 -9 -43 -21z m626 -436 c286 -163 520 -299 520 -302 0
-4 -51 -34 -113 -69 -61 -35 -143 -81 -182 -103 -38 -23 -160 -92 -270 -153
-110 -62 -260 -147 -334 -189 -73 -43 -138 -77 -142 -77 -5 0 -9 267 -9 595 0
327 2 595 5 595 3 0 239 -134 525 -297z"/>
</g>
</svg>
