<?xml version="1.0" standalone="no"?>
<!DOCTYPE svg PUBLIC "-//W3C//DTD SVG 20010904//EN"
 "http://www.w3.org/TR/2001/REC-SVG-20010904/DTD/svg10.dtd">
<svg version="1.0" xmlns="http://www.w3.org/2000/svg"
 width="260.000000pt" height="260.000000pt" viewBox="0 0 260.000000 260.000000"
 preserveAspectRatio="xMidYMid meet">

<g transform="translate(0.000000,260.000000) scale(0.100000,-0.100000)"
fill="#000000" stroke="none">
<path d="M942 2371 c-91 -31 -203 -86 -233 -114 -26 -24 -24 -45 8 -107 49
-94 30 -189 -51 -254 -30 -25 -48 -31 -101 -34 -56 -4 -73 0 -119 23 -35 18
-63 25 -78 22 -39 -10 -118 -162 -153 -297 -14 -51 -13 -57 3 -79 10 -14 41
-32 71 -41 29 -10 68 -33 87 -51 40 -39 69 -121 58 -166 -18 -76 -74 -141
-134 -158 -104 -28 -111 -46 -70 -169 40 -118 98 -227 131 -245 24 -13 30 -12
80 14 126 66 258 17 295 -111 17 -60 9 -109 -29 -176 -20 -35 -21 -40 -7 -65
18 -33 103 -81 218 -123 127 -46 170 -38 188 35 19 82 86 147 164 160 90 15
186 -46 216 -138 25 -77 40 -90 95 -84 55 7 210 68 273 107 60 38 66 64 30
127 -22 37 -29 60 -28 103 1 158 156 243 303 165 49 -26 56 -27 79 -14 48 27
152 256 152 334 0 43 -18 60 -84 79 -38 11 -64 27 -89 55 -105 116 -50 279
107 325 69 20 77 41 53 135 -20 73 -95 237 -121 264 -24 23 -62 21 -99 -5 -27
-19 -45 -23 -109 -23 -70 0 -79 2 -115 31 -85 69 -103 164 -48 262 28 49 29
54 15 80 -19 34 -144 101 -256 136 -112 36 -132 27 -159 -74 -21 -74 -100
-130 -186 -130 -95 0 -165 55 -193 153 -11 40 -22 57 -41 65 -33 15 -25 16
-123 -17z m71 -174 c33 -56 97 -113 156 -141 67 -31 197 -29 266 4 57 28 152
119 161 155 8 31 23 31 94 -1 l57 -25 -14 -42 c-20 -58 -12 -167 17 -234 27
-62 101 -136 167 -165 77 -34 177 -35 254 -4 12 5 22 -7 42 -54 15 -34 27 -65
27 -70 0 -5 -17 -18 -37 -29 -50 -25 -115 -95 -143 -151 -31 -61 -37 -159 -16
-233 24 -82 89 -159 181 -212 16 -10 15 -14 -7 -70 -22 -53 -28 -60 -49 -57
-13 2 -64 4 -114 5 -74 2 -99 -2 -138 -20 -76 -35 -121 -77 -157 -144 -41 -77
-52 -180 -27 -252 l15 -46 -64 -25 c-35 -14 -66 -26 -68 -26 -2 0 -15 19 -29
43 -37 63 -106 121 -173 147 -80 30 -186 25 -259 -12 -54 -28 -123 -95 -149
-147 -9 -17 -21 -31 -26 -31 -5 0 -35 12 -68 26 l-60 26 15 46 c21 66 11 170
-22 237 -34 71 -107 137 -181 164 -48 19 -72 22 -129 18 -38 -3 -82 -9 -98
-12 -25 -7 -29 -4 -52 49 -31 70 -31 82 0 90 36 9 127 104 155 161 34 70 35
197 2 270 -27 59 -80 117 -139 152 -24 14 -43 30 -43 35 0 6 12 36 26 68 l25
57 52 -14 c238 -65 458 147 407 390 -6 31 -11 60 -11 63 0 8 99 53 118 54 6 0
23 -20 36 -43z"/>
<path d="M1224 1890 c-191 -28 -365 -149 -448 -312 -50 -100 -66 -166 -66
-280 0 -175 62 -314 195 -436 232 -212 587 -203 811 22 183 183 226 446 112
685 -40 84 -168 214 -253 258 -103 52 -246 78 -351 63z m191 -145 c32 -9 81
-28 107 -42 64 -35 156 -134 189 -203 136 -282 -42 -608 -356 -653 -185 -27
-387 84 -470 258 -165 349 156 737 530 640z"/>
<path d="M1260 1619 c-78 -9 -122 -30 -185 -90 -74 -70 -98 -133 -93 -244 4
-98 32 -158 101 -221 129 -116 321 -112 443 10 154 155 113 415 -81 515 -54
28 -118 38 -185 30z m108 -209 c34 -21 62 -72 62 -112 0 -59 -69 -128 -128
-128 -39 0 -90 30 -112 65 -70 114 63 245 178 175z"/>
</g>
</svg>
