<?xml version="1.0" standalone="no"?>
<!DOCTYPE svg PUBLIC "-//W3C//DTD SVG 20010904//EN"
 "http://www.w3.org/TR/2001/REC-SVG-20010904/DTD/svg10.dtd">
<svg version="1.0" xmlns="http://www.w3.org/2000/svg"
 width="256.000000pt" height="256.000000pt" viewBox="0 0 256.000000 256.000000"
 preserveAspectRatio="xMidYMid meet">

<g transform="translate(0.000000,256.000000) scale(0.100000,-0.100000)"
fill="#000000" stroke="none">
<path d="M584 2541 c-44 -27 -54 -66 -54 -202 l0 -119 -37 -19 c-49 -24 -110
-85 -134 -133 l-19 -38 -121 0 c-137 0 -179 -12 -203 -59 -20 -38 -20 -64 0
-102 23 -46 67 -59 194 -59 l110 0 0 -160 0 -160 -120 0 c-66 0 -130 -5 -144
-11 -60 -28 -71 -122 -20 -170 24 -22 34 -24 155 -27 l129 -4 0 -158 0 -158
-129 -4 c-121 -3 -131 -5 -155 -27 -51 -48 -40 -142 20 -170 14 -6 80 -11 152
-11 l127 0 24 -46 c27 -49 95 -115 142 -136 l29 -13 0 -123 c0 -136 12 -179
55 -202 32 -17 78 -17 110 0 42 23 55 67 55 189 l0 111 160 0 160 0 0 -124 c0
-118 1 -126 25 -154 30 -36 75 -47 120 -28 56 24 65 54 65 228 0 144 4 177 35
275 l7 23 -359 0 c-315 0 -361 2 -382 16 -50 36 -51 43 -51 625 0 601 -1 592
65 624 31 14 97 15 596 13 l561 -3 29 -33 29 -32 0 -500 0 -500 110 0 110 0 0
160 0 160 115 0 c135 0 168 12 191 67 19 43 5 93 -33 123 -23 18 -41 20 -149
20 l-124 0 0 160 0 160 113 0 c136 0 174 15 196 76 12 35 12 44 -3 76 -27 56
-63 68 -208 68 l-123 0 -24 45 c-27 52 -86 108 -136 132 l-35 17 0 128 c0 93
-4 137 -15 157 -29 57 -119 65 -166 15 -22 -24 -24 -34 -27 -155 l-4 -129
-158 0 -158 0 -4 129 c-3 121 -5 131 -27 155 -48 51 -142 40 -170 -20 -6 -14
-11 -78 -11 -144 l0 -120 -160 0 -160 0 0 110 c0 127 -13 171 -59 194 -40 21
-69 20 -107 -3z"/>
<path d="M855 1796 c-37 -17 -80 -62 -94 -99 -7 -18 -11 -137 -11 -316 l0
-287 29 -46 c19 -30 44 -52 73 -67 42 -20 59 -21 321 -21 304 0 316 2 374 60
45 44 53 83 53 245 0 115 -4 147 -19 180 -22 48 -313 339 -354 354 -42 16
-335 13 -372 -3z"/>
<path d="M1620 737 c-51 -17 -105 -76 -118 -130 -15 -57 -16 -418 -2 -469 24
-86 102 -137 208 -138 73 0 115 15 159 60 40 40 53 83 53 180 0 100 -12 138
-57 182 -48 46 -79 58 -154 58 l-59 0 0 45 c0 58 14 65 130 65 83 0 93 2 115
25 32 31 32 66 1 102 -24 27 -27 28 -133 30 -60 1 -123 -3 -143 -10z m135
-497 l0 -75 -44 -3 c-55 -4 -61 4 -61 91 l0 68 53 -3 52 -3 0 -75z"/>
<path d="M2180 737 c-43 -22 -51 -51 -48 -182 3 -139 19 -182 84 -228 31 -22
55 -29 112 -34 l72 -6 0 -119 c0 -116 1 -120 26 -143 42 -39 95 -32 119 16 12
23 15 85 15 338 l0 310 -23 27 c-33 37 -81 37 -114 0 -21 -25 -23 -36 -23
-147 l0 -119 -43 0 c-24 0 -48 5 -55 12 -8 8 -12 49 -12 119 0 59 -3 115 -6
124 -6 15 -54 45 -71 45 -4 0 -19 -6 -33 -13z"/>
</g>
</svg>
