<?xml version="1.0" standalone="no"?>
<!DOCTYPE svg PUBLIC "-//W3C//DTD SVG 20010904//EN"
 "http://www.w3.org/TR/2001/REC-SVG-20010904/DTD/svg10.dtd">
<svg version="1.0" xmlns="http://www.w3.org/2000/svg"
 width="512.000000pt" height="512.000000pt" viewBox="0 0 512.000000 512.000000"
 preserveAspectRatio="xMidYMid meet">

<g transform="translate(0.000000,512.000000) scale(0.100000,-0.100000)"
fill="#000000" stroke="none">
<path d="M2430 5094 c-535 -30 -1055 -227 -1470 -559 -131 -105 -336 -317
-437 -452 -343 -457 -516 -974 -516 -1543 0 -698 264 -1327 762 -1820 374
-370 845 -611 1364 -700 102 -17 164 -20 425 -20 261 0 325 3 427 20 1020 172
1845 953 2069 1960 80 364 80 757 0 1120 -138 616 -518 1181 -1039 1542 -407
282 -879 436 -1385 451 -74 2 -164 3 -200 1z m-1246 -1597 c110 -61 134 -207
50 -305 -114 -134 -330 -68 -351 106 -19 167 153 281 301 199z m3004 -174 l-3
-158 -1210 0 -1210 0 -3 158 -3 157 1216 0 1216 0 -3 -157z m-3025 -529 c80
-41 120 -102 120 -186 0 -113 -85 -198 -200 -198 -125 0 -213 97 -201 222 13
130 168 219 281 162z m3027 -184 l0 -160 -1212 2 -1213 3 -3 145 c-1 79 0 150
2 157 4 11 234 13 1216 13 l1210 0 0 -160z m-3049 -521 c148 -50 192 -224 85
-334 -62 -65 -144 -82 -221 -46 -53 24 -83 55 -106 105 -70 154 83 328 242
275z m3044 -194 l0 -160 -1210 0 -1210 0 -3 150 c-1 82 0 155 2 162 4 11 231
13 1213 11 l1208 -3 0 -160z"/>
</g>
</svg>
