<?xml version="1.0" standalone="no"?>
<!DOCTYPE svg PUBLIC "-//W3C//DTD SVG 20010904//EN"
 "http://www.w3.org/TR/2001/REC-SVG-20010904/DTD/svg10.dtd">
<svg version="1.0" xmlns="http://www.w3.org/2000/svg"
 width="500.000000pt" height="500.000000pt" viewBox="0 0 500.000000 500.000000"
 preserveAspectRatio="xMidYMid meet">

<g transform="translate(0.000000,500.000000) scale(0.100000,-0.100000)"
fill="#000000" stroke="none">
<path d="M963 4189 c-64 -25 -134 -99 -157 -166 -44 -128 5 -264 121 -337 39
-25 59 -30 129 -34 75 -4 89 -2 138 22 63 31 110 80 139 145 16 36 18 60 15
125 -4 69 -9 89 -36 132 -74 118 -216 164 -349 113z m185 -139 c20 -13 41 -38
53 -65 27 -61 18 -108 -30 -157 -49 -48 -94 -57 -155 -30 -142 63 -100 272 54
272 28 0 58 -8 78 -20z"/>
<path d="M3850 4201 c-94 -30 -176 -115 -194 -198 -42 -190 84 -355 272 -356
81 -1 140 23 196 79 136 136 107 352 -61 451 -35 20 -61 27 -117 29 -39 2 -82
0 -96 -5z m150 -149 c66 -35 90 -133 50 -200 -27 -44 -96 -75 -146 -66 -82 15
-138 105 -113 182 14 45 26 60 64 84 38 23 101 23 145 0z"/>
<path d="M2600 4081 c-116 -38 -190 -138 -190 -261 0 -110 12 -125 316 -430
l274 -276 0 -75 0 -76 -52 18 c-66 23 -96 23 -172 2 -81 -23 -154 -93 -185
-177 -22 -59 -22 -66 -19 -565 4 -492 4 -508 26 -572 12 -37 40 -93 62 -125
21 -33 207 -227 413 -433 l374 -373 47 44 c25 25 46 49 46 53 0 5 -175 185
-389 400 -358 360 -390 395 -412 450 l-24 60 0 510 0 510 24 31 c64 86 187 81
241 -9 19 -30 20 -52 20 -334 l0 -302 45 -7 c25 -3 56 -3 70 0 l25 6 0 513 0
512 -286 285 c-157 157 -290 295 -295 308 -12 31 -11 86 2 114 20 46 78 72
149 69 33 -1 743 -707 771 -766 18 -38 19 -76 19 -696 l0 -657 331 -332 332
-331 49 48 48 48 -310 310 -309 310 -3 650 -3 650 -29 60 c-24 51 -83 114
-393 426 -257 258 -379 373 -412 390 -49 25 -154 35 -201 20z"/>
<path d="M1814 3490 c-103 -21 -203 -102 -249 -203 -26 -57 -32 -104 -80 -667
-14 -168 -32 -370 -39 -449 l-14 -144 -346 -346 -346 -346 47 -47 48 -47 367
366 367 365 6 72 c14 171 57 671 76 891 11 132 27 258 35 280 18 51 66 102
118 126 37 17 71 19 369 19 l327 0 0 70 0 70 -322 -1 c-178 -1 -342 -5 -364
-9z"/>
<path d="M2000 2680 l0 -390 88 0 87 0 150 150 149 150 -39 42 c-22 23 -44 46
-50 50 -6 4 -58 -40 -120 -102 -60 -60 -113 -113 -117 -117 -5 -3 -8 100 -8
230 l0 237 215 0 215 0 0 70 0 70 -285 0 -285 0 0 -390z"/>
<path d="M2347 1808 c-13 -18 -59 -82 -102 -143 -62 -87 -153 -185 -437 -470
l-358 -361 50 -49 50 -50 338 339 c185 185 364 372 398 414 96 121 198 273
187 281 -5 3 -30 21 -55 39 l-47 32 -24 -32z"/>
</g>
</svg>
