<?xml version="1.0" standalone="no"?>
<!DOCTYPE svg PUBLIC "-//W3C//DTD SVG 20010904//EN"
 "http://www.w3.org/TR/2001/REC-SVG-20010904/DTD/svg10.dtd">
<svg version="1.0" xmlns="http://www.w3.org/2000/svg"
 width="500.000000pt" height="500.000000pt" viewBox="0 0 500.000000 500.000000"
 preserveAspectRatio="xMidYMid meet">

<g transform="translate(0.000000,500.000000) scale(0.100000,-0.100000)"
fill="#000000" stroke="none">
<path d="M2220 4984 c-652 -79 -1219 -385 -1645 -889 -177 -210 -354 -528
-444 -800 -327 -988 -27 -2043 774 -2720 107 -90 319 -230 452 -298 946 -484
2086 -321 2862 409 680 639 946 1635 675 2531 -147 486 -441 922 -834 1236
-509 408 -1203 608 -1840 531z m660 -312 c338 -61 665 -203 937 -405 138 -103
347 -312 450 -450 226 -304 367 -652 419 -1037 18 -135 18 -425 0 -560 -65
-482 -267 -902 -601 -1248 -350 -364 -808 -594 -1307 -658 -165 -21 -493 -15
-638 11 -485 87 -895 304 -1225 647 -333 345 -536 767 -601 1248 -18 141 -18
419 2 570 63 490 295 948 656 1295 342 330 756 531 1238 600 145 21 521 14
670 -13z"/>
<path d="M1303 3780 c-63 -13 -116 -44 -161 -95 -76 -86 -73 -45 -70 -941 l3
-799 30 -53 c32 -59 66 -91 129 -125 l41 -22 1225 0 1225 0 53 30 c59 32 91
66 125 129 l22 41 3 799 c3 901 6 856 -73 944 -27 30 -66 59 -97 73 l-53 24
-1180 2 c-649 0 -1199 -3 -1222 -7z m2327 -228 c73 -39 70 -5 70 -790 0 -765
2 -735 -56 -781 l-27 -21 -1117 0 -1117 0 -27 21 c-58 46 -56 16 -56 781 0
785 -3 751 70 790 33 17 87 18 1130 18 1043 0 1097 -1 1130 -18z"/>
<path d="M1424 3459 c-18 -20 -19 -48 -22 -691 l-2 -669 29 -30 29 -29 1042 0
1042 0 29 29 29 30 -2 669 c-3 643 -4 671 -22 691 l-19 21 -1057 0 -1057 0
-19 -21z m1040 -281 c14 -19 16 -65 16 -297 0 -241 -2 -277 -17 -293 -18 -20
-63 -24 -81 -6 -17 17 -17 589 0 606 20 20 65 14 82 -10z m158 -35 c18 -16 24
-59 10 -79 -15 -23 -50 -34 -77 -24 -46 17 -53 85 -11 112 19 13 59 9 78 -9z
m-809 -137 c18 -7 46 -29 64 -49 103 -117 60 -330 -76 -376 -140 -46 -264 54
-263 214 1 98 45 179 117 211 39 17 117 18 158 0z m267 5 c100 8 150 3 177
-17 54 -39 68 -84 71 -237 3 -114 1 -142 -12 -162 -19 -29 -60 -33 -88 -8 -16
14 -18 33 -18 155 0 125 -2 140 -20 158 -27 27 -66 25 -95 -5 -24 -23 -25 -29
-25 -159 0 -146 -7 -166 -55 -166 -51 0 -55 16 -55 221 0 220 4 234 58 225 21
-4 48 -6 62 -5z m540 -10 c6 -12 10 -99 10 -215 0 -183 -1 -196 -19 -206 -28
-14 -52 -12 -73 7 -16 14 -18 35 -18 209 0 162 3 195 16 208 22 23 71 20 84
-3z m147 8 c9 -9 20 -9 44 0 86 30 173 -1 208 -72 19 -38 21 -61 21 -195 0
-139 -2 -152 -19 -162 -28 -14 -57 -12 -75 6 -13 12 -16 41 -16 150 0 131 -1
136 -26 161 -20 20 -31 24 -57 19 -52 -10 -57 -26 -57 -171 0 -102 -3 -135
-16 -153 -17 -24 -62 -30 -82 -10 -17 17 -17 409 0 426 15 15 60 16 75 1z
m583 -9 c47 -24 84 -77 101 -142 14 -60 6 -96 -27 -108 -14 -6 -75 -10 -135
-10 -119 0 -134 -9 -83 -49 36 -28 88 -27 141 5 48 28 80 28 97 2 30 -48 -48
-115 -146 -125 -134 -13 -218 55 -234 190 -12 104 39 207 121 243 45 20 120
17 165 -6z"/>
<path d="M1684 2897 c-22 -19 -28 -34 -32 -80 -2 -31 -1 -68 2 -82 17 -66 92
-87 137 -39 21 22 24 35 24 101 0 70 -2 76 -28 99 -35 30 -68 31 -103 1z"/>
<path d="M3206 2899 c-14 -11 -26 -29 -26 -40 0 -17 8 -19 80 -19 90 0 100 11
55 55 -30 31 -73 32 -109 4z"/>
<path d="M2230 1559 c-65 -114 -173 -189 -296 -206 l-44 -6 0 -68 0 -69 610 0
610 0 0 68 0 67 -60 12 c-120 23 -218 93 -280 201 l-35 61 -235 0 -235 0 -35
-60z"/>
</g>
</svg>
