<?xml version="1.0" standalone="no"?>
<!DOCTYPE svg PUBLIC "-//W3C//DTD SVG 20010904//EN"
 "http://www.w3.org/TR/2001/REC-SVG-20010904/DTD/svg10.dtd">
<svg version="1.0" xmlns="http://www.w3.org/2000/svg"
 width="500.000000pt" height="500.000000pt" viewBox="0 0 500.000000 500.000000"
 preserveAspectRatio="xMidYMid meet">

<g transform="translate(0.000000,500.000000) scale(0.100000,-0.100000)"
fill="#000000" stroke="none">
<path d="M1785 4984 c-617 -87 -1159 -436 -1478 -954 -68 -111 -161 -311 -202
-433 -168 -504 -133 -1048 99 -1524 215 -440 503 -731 938 -948 315 -157 635
-226 983 -212 430 17 805 152 1163 417 l33 24 657 -656 c504 -504 667 -662
702 -677 89 -40 181 -22 251 48 70 70 88 162 48 251 -15 35 -173 198 -677 702
l-656 657 24 33 c119 161 212 325 279 495 140 354 177 773 101 1150 -58 288
-206 611 -388 850 -186 244 -414 428 -713 577 -286 143 -543 205 -864 212
-135 2 -222 -1 -300 -12z m510 -460 c406 -61 800 -303 1038 -636 80 -112 184
-318 226 -448 102 -314 100 -674 -4 -986 -40 -119 -147 -328 -222 -433 -87
-121 -233 -267 -354 -354 -105 -75 -314 -182 -433 -222 -389 -130 -816 -101
-1191 80 -333 161 -581 409 -740 740 -310 645 -160 1395 377 1881 189 171 479
315 743 369 167 34 374 38 560 9z"/>
<path d="M1962 3850 c-47 -20 -92 -63 -117 -113 -25 -51 -25 -53 -25 -304 l0
-253 -254 0 -254 0 -53 -28 c-34 -17 -65 -44 -84 -71 -27 -39 -30 -50 -30
-125 0 -73 3 -87 28 -124 15 -23 46 -54 69 -69 l41 -28 266 -5 266 -5 5 -266
5 -266 28 -41 c92 -140 292 -140 384 0 l28 41 5 266 5 266 266 5 266 5 41 28
c23 15 54 46 69 69 25 37 28 51 28 124 0 76 -2 86 -30 126 -17 23 -51 54 -75
68 -44 24 -51 25 -305 30 l-260 5 -5 266 -5 266 -28 41 c-44 67 -97 96 -181
99 -39 2 -81 -2 -94 -7z"/>
</g>
</svg>
