<?xml version="1.0" standalone="no"?>
<!DOCTYPE svg PUBLIC "-//W3C//DTD SVG 20010904//EN"
 "http://www.w3.org/TR/2001/REC-SVG-20010904/DTD/svg10.dtd">
<svg version="1.0" xmlns="http://www.w3.org/2000/svg"
 width="500.000000pt" height="500.000000pt" viewBox="0 0 500.000000 500.000000"
 preserveAspectRatio="xMidYMid meet">

<g transform="translate(0.000000,500.000000) scale(0.100000,-0.100000)"
fill="#000000" stroke="none">
<path d="M243 4639 c-26 -9 -149 -192 -199 -295 -47 -99 -54 -167 -24 -246 64
-171 303 -225 431 -97 96 96 110 199 46 334 -21 44 -70 128 -109 187 -74 111
-102 133 -145 117z"/>
<path d="M2033 4640 c-26 -11 -160 -210 -204 -304 -55 -117 -50 -214 14 -298
49 -64 113 -99 190 -105 128 -11 232 54 276 173 30 78 22 137 -30 244 -64 133
-187 302 -218 299 -3 0 -16 -4 -28 -9z"/>
<path d="M3262 4327 c-6 -7 -12 -51 -14 -97 l-3 -85 -100 -11 c-532 -60 -974
-329 -1260 -768 -149 -229 -224 -448 -270 -793 -18 -134 -14 -156 31 -173 52
-20 84 19 84 102 0 102 80 215 186 264 186 87 409 -14 469 -212 8 -27 15 -64
15 -81 0 -39 30 -73 65 -73 37 0 62 34 68 95 7 73 45 150 98 204 54 53 97 76
177 92 70 15 156 3 222 -31 53 -27 120 -98 147 -156 38 -83 44 -178 41 -623
l-3 -415 -85 -12 c-264 -39 -446 -190 -527 -439 -34 -105 -43 -294 -19 -398
54 -229 213 -357 445 -357 136 0 230 37 314 123 153 157 162 432 18 576 -66
66 -131 94 -233 99 -104 5 -165 -8 -226 -49 -23 -16 -45 -29 -47 -29 -2 0 3
20 12 45 21 64 92 138 167 175 63 31 185 59 261 60 l41 0 -1 593 0 592 29 58
c71 145 227 222 377 187 76 -18 117 -41 171 -97 56 -57 85 -118 97 -204 9 -65
26 -89 66 -89 39 0 57 24 66 85 28 207 219 344 425 306 37 -6 83 -20 103 -30
95 -49 174 -155 186 -251 11 -84 14 -91 51 -106 25 -11 40 -12 54 -4 35 19 43
47 35 139 -22 279 -75 471 -196 701 -77 147 -150 248 -268 372 -291 307 -671
489 -1088 523 l-83 7 0 80 c0 43 -5 88 -10 99 -12 22 -71 27 -88 6z m-172
-3379 c65 -33 94 -91 94 -183 0 -56 -5 -79 -24 -115 -69 -123 -215 -120 -283
8 -29 54 -45 140 -33 185 15 61 103 126 171 127 17 0 51 -10 75 -22z"/>
<path d="M1180 3994 c-86 -99 -201 -307 -215 -391 -16 -99 47 -213 147 -262
136 -68 290 -19 361 114 16 30 21 58 22 115 0 66 -4 84 -36 150 -40 84 -136
234 -179 280 -37 39 -61 38 -100 -6z"/>
<path d="M207 3178 c-53 -66 -124 -180 -165 -266 -32 -67 -37 -86 -37 -147 1
-79 21 -127 77 -184 74 -76 205 -99 300 -52 98 47 166 163 155 261 -8 67 -56
166 -143 297 -100 151 -127 164 -187 91z"/>
<path d="M58 994 c-2 -333 -1 -609 2 -612 3 -4 65 -6 138 -4 l132 3 0 610 0
609 -135 0 -135 0 -2 -606z"/>
<path d="M680 1594 c-14 -3 -44 -7 -68 -10 l-42 -5 2 -600 3 -600 135 -2 135
-1 3 217 2 217 103 0 c221 1 386 82 453 225 28 62 48 173 41 230 -16 111 -84
219 -171 270 -84 49 -180 65 -385 64 -102 -1 -197 -3 -211 -5z m350 -205 c90
-19 140 -80 140 -169 0 -132 -86 -200 -252 -200 l-68 0 0 184 0 185 33 4 c63
8 97 7 147 -4z"/>
<path d="M2135 1559 c-225 -33 -403 -155 -493 -340 -53 -106 -72 -179 -79
-301 -16 -270 106 -480 316 -542 69 -20 211 -21 278 -1 256 76 379 370 255
610 -26 53 -101 121 -160 147 -99 44 -258 36 -346 -17 -41 -24 -56 -29 -56
-19 0 28 41 96 84 138 72 73 158 103 339 122 l57 5 0 105 0 104 -67 -1 c-38
-1 -95 -5 -128 -10z m-68 -600 c38 -14 71 -46 95 -93 25 -49 22 -161 -6 -219
-37 -75 -133 -108 -206 -70 -108 56 -151 236 -78 328 42 53 132 78 195 54z"/>
</g>
</svg>
